#!OML:ASF E:\emotionWalksFemale\Project 1\Capture day 1\Session 1\Female1.ASF
:FULLY-SPECIFIED
:DEGREES
376
root 8.29705 15.5981 8.05983 5.65881 -82.2119 -5.34761
lowerback 10.4158 1.06538 3.12079
upperback -4.30348 1.92675 0.54478
thorax -10.4141 0.728038 -1.53898
lowerneck -7.13397 -5.13754 -7.96309
upperneck 3.80387 -6.30274 3.56213
head 2.91267 -3.1478 2.26389
rclavicle -3.10601e-014 -1.11319e-014
rhumerus -44.0762 4.28201 -74.6593
rradius 31.0106
rwrist 34.2295
rhand -5.43178 -54.2995
rfingers 7.12502
rthumb 20.3785 -83.2502
lclavicle -3.10601e-014 -1.11319e-014
lhumerus -57.9979 1.86471 66.4455
lradius 49.9722
lwrist 7.94635
lhand -2.85835 -31.7423
lfingers 7.12502
lthumb 22.8499 -3.07592
rfemur 8.48253 21.2209 30.9461
rtibia 4.36034
rfoot -12.1538 -30.7828
rtoes -8.56007
lfemur -9.0086 -18.578 -22.9567
ltibia 28.6424
lfoot -22.5628 15.3379
ltoes -19.2612
377
root 8.30199 15.6089 8.05589 5.21944 -81.8488 -4.93121
lowerback 10.2379 1.13712 3.13816
upperback -4.31587 2.01086 0.462999
thorax -10.3144 0.766129 -1.64769
lowerneck -7.09044 -5.35451 -8.03798
upperneck 4.1138 -6.60857 3.81267
head 3.04671 -3.29706 2.3436
rclavicle -8.62228e-015 -1.47101e-014
rhumerus -44.1972 2.26385 -73.6687
rradius 29.5028
rwrist 36.9403
rhand -4.2335 -55.382
rfingers 7.12502
rthumb 21.5297 -84.2054
lclavicle -8.62228e-015 -1.47101e-014
lhumerus -57.0227 4.49059 65.559
lradius 48.666
lwrist 8.99577
lhand -4.071 -31.5385
lfingers 7.12502
lthumb 21.6858 -2.7331
rfemur 8.03597 21.1415 30.9485
rtibia 5.32964
rfoot -13.039 -30.9655
rtoes -7.16827
lfemur -9.02426 -18.9091 -22.7975
ltibia 28.5552
lfoot -22.4448 14.2269
ltoes -16.18
378
root 8.30175 15.6168 8.05575 4.48669 -81.5154 -4.10738
lowerback 9.89678 1.17425 3.10866
upperback -4.36831 2.03788 0.409798
thorax -10.1671 0.781454 -1.68397
lowerneck -7.15902 -5.55122 -8.30074
upperneck 4.55713 -6.85982 3.99928
head 3.25288 -3.42528 2.4362
rclavicle -5.98093e-014 -8.34896e-015
rhumerus -44.448 0.618371 -72.7271
rradius 28.4249
rwrist 39.6051
rhand -2.68143 -55.9942
rfingers 7.12502
rthumb 23.0197 -84.6396
lclavicle -5.98093e-014 -8.34896e-015
lhumerus -56.1522 7.29169 64.6316
lradius 47.1278
lwrist 9.66258
lhand -5.36261 -31.6955
lfingers 7.12502
lthumb 20.445 -2.75186
rfemur 7.53704 21.1086 30.828
rtibia 6.16401
rfoot -13.753 -31.1957
rtoes -6.30299
lfemur -9.12189 -19.2861 -22.7264
ltibia 28.392
lfoot -22.4944 13.5678
ltoes -14.0696
379
root 8.29812 15.6195 8.05536 2.75913 -81.1801 -2.32215
lowerback 9.61933 1.21705 2.94796
upperback -4.42716 2.05321 0.307307
thorax -10.0675 0.797023 -1.699
lowerneck -7.20449 -5.76851 -8.76995
upperneck 4.97313 -7.13674 4.40591
head 3.4733 -3.56289 2.64151
rclavicle 2.72335e-014 -3.97569e-015
rhumerus -44.8294 -0.833335 -71.9048
rradius 27.6831
rwrist 42.027
rhand -1.17576 -56.4965
rfingers 7.12502
rthumb 24.4637 -84.9542
lclavicle 2.72335e-014 -3.97569e-015
lhumerus -55.6041 10.2621 63.6419
lradius 45.5732
lwrist 9.44372
lhand -7.18037 -32.4355
lfingers 7.12502
lthumb 18.6973 -3.31406
rfemur 6.97258 21.0578 30.5682
rtibia 7.24061
rfoot -14.4292 -31.4818
rtoes -5.9805
lfemur -9.05246 -19.6268 -22.8935
ltibia 28.0576
lfoot -22.2425 13.2239
ltoes -13.7705
380
root 8.2935 15.6125 8.05295 1.12316 -80.8232 -0.719264
lowerback 9.46862 1.23937 2.64326
upperback -4.47236 2.03114 0.250354
thorax -10.0359 0.804624 -1.58119
lowerneck -7.09744 -5.95216 -9.24262
upperneck 5.47655 -7.41308 5.17654
head 3.31963 -3.67083 2.65755
rclavicle -7.20594e-015 -3.37934e-015
rhumerus -45.3743 -1.4987 -71.5782
rradius 27.4675
rwrist 43.6523
rhand 0.178917 -57.1511
rfingers 7.12502
rthumb 25.7617 -85.4271
lclavicle -7.20594e-015 -3.37934e-015
lhumerus -55.4145 13.1105 62.8365
lradius 44.2975
lwrist 9.3567
lhand -9.03425 -32.8941
lfingers 7.12502
lthumb 16.9135 -3.61061
rfemur 6.47976 20.9712 30.4142
rtibia 8.364
rfoot -14.4036 -32.0476
rtoes -7.79294
lfemur -8.90728 -19.5494 -23.1172
ltibia 27.6516
lfoot -20.8897 13.9141
ltoes -23.7532
381
root 8.2881 15.6192 8.05131 -0.0973595 -80.4364 0.504235
lowerback 9.30308 1.24881 2.39383
upperback -4.52465 1.99795 0.174689
thorax -10.0015 0.802365 -1.51218
lowerneck -7.06848 -6.15384 -9.57836
upperneck 5.76186 -7.69262 5.56901
head 3.45014 -3.80405 2.80753
rclavicle 1.2275e-014 -9.93923e-016
rhumerus -46.0396 -1.07436 -72.0936
rradius 27.7624
rwrist 43.8262
rhand 1.42884 -57.6672
rfingers 7.12502
rthumb 26.9582 -85.7641
lclavicle 1.2275e-014 -9.93923e-016
lhumerus -55.3249 15.4797 62.313
lradius 43.3421
lwrist 9.84733
lhand -10.3741 -32.7297
lfingers 7.12502
lthumb 15.6234 -3.34065
rfemur 6.15304 20.8708 30.2636
rtibia 9.47975
rfoot -17.4933 -31.3926
rtoes -1.71534
lfemur -8.73674 -19.6664 -23.2764
ltibia 27.1447
lfoot -20.0605 14.3643
ltoes -30.4644
382
root 8.28418 15.6118 8.05406 -1.12313 -80.0278 1.6643
lowerback 9.02493 1.25113 2.22466
upperback -4.60375 1.95758 0.0354488
thorax -9.92525 0.789139 -1.55213
lowerneck -7.14155 -6.34171 -9.65858
upperneck 6.05961 -7.95424 5.73991
head 3.58237 -3.92988 2.84779
rclavicle 1.06101e-014 -1.39149e-015
rhumerus -46.8036 -0.0305129 -73.2029
rradius 28.3727
rwrist 42.8899
rhand 2.38816 -58.0191
rfingers 7.12502
rthumb 27.8758 -85.9707
lclavicle 1.06101e-014 -1.39149e-015
lhumerus -55.182 17.216 62.1332
lradius 42.5899
lwrist 10.6776
lhand -11.4711 -32.1914
lfingers 7.12502
lthumb 14.5666 -2.72291
rfemur 5.51039 20.7717 30.1071
rtibia 10.3686
rfoot -16.2311 -32.6033
rtoes -7.20984
lfemur -8.67389 -20.2221 -23.4104
ltibia 26.7198
lfoot -20.6025 13.9247
ltoes -28.4242
383
root 8.27997 15.6138 8.05478 -1.90527 -79.6388 2.60034
lowerback 8.71594 1.22817 2.07417
upperback -4.66227 1.8867 -0.0924179
thorax -9.80904 0.761137 -1.584
lowerneck -7.1681 -6.47708 -9.64829
upperneck 6.20258 -8.15227 5.88021
head 3.65082 -4.02256 2.87213
rclavicle -7.95139e-016 4.17448e-015
rhumerus -47.5278 1.17091 -74.4692
rradius 29.0818
rwrist 41.5056
rhand 3.10352 -57.9613
rfingers 7.12502
rthumb 28.5595 -85.7999
lclavicle -7.95139e-016 4.17448e-015
lhumerus -55.0883 18.5895 62.2012
lradius 41.9852
lwrist 11.1621
lhand -12.3094 -31.69
lfingers 7.12502
lthumb 13.7588 -2.16493
rfemur 5.20231 21.3582 29.9769
rtibia 11.0777
rfoot -18.8194 -32.5918
rtoes -0.980044
lfemur -8.58936 -20.7372 -23.4935
ltibia 26.2693
lfoot -20.8316 13.6478
ltoes -27.9984
384
root 8.27659 15.603 8.05846 -2.54694 -79.3597 3.29516
lowerback 8.54575 1.23814 2.04919
upperback -4.6894 1.87669 -0.26753
thorax -9.73305 0.752171 -1.75071
lowerneck -7.02941 -6.6354 -9.82287
upperneck 6.13897 -8.39282 6.274
head 3.65212 -4.13129 3.00704
rclavicle -1.66482e-015 -4.17448e-015
rhumerus -48.1437 2.00105 -75.676
rradius 29.7349
rwrist 40.147
rhand 3.60654 -57.5746
rfingers 7.12502
rthumb 29.04 -85.3315
lclavicle -1.66482e-015 -4.17448e-015
lhumerus -55.0647 19.6368 62.3379
lradius 41.6593
lwrist 11.0782
lhand -12.331 -30.994
lfingers 7.12502
lthumb 13.738 -1.46753
rfemur 4.97158 21.1022 29.8383
rtibia 11.2837
rfoot -17.2393 -33.4101
rtoes -5.16504
lfemur -8.47323 -21.1891 -23.6213
ltibia 26.0641
lfoot -20.7369 13.644
ltoes -29.0091
385
root 8.27338 15.603 8.05811 -2.30689 -79.2071 3.02531
lowerback 8.50228 1.24388 2.12072
upperback -4.70303 1.88172 -0.386987
thorax -9.71599 0.745469 -1.91825
lowerneck -6.89986 -6.76908 -10.0019
upperneck 5.98239 -8.60069 6.73078
head 3.62851 -4.22111 3.16517
rclavicle -4.27387e-015 -2.38542e-015
rhumerus -48.6737 2.89851 -77.0399
rradius 30.4563
rwrist 38.5334
rhand 3.59633 -56.8889
rfingers 7.12502
rthumb 29.0302 -84.6474
lclavicle -4.27387e-015 -2.38542e-015
lhumerus -55.0023 20.2965 62.6963
lradius 41.4981
lwrist 11.1768
lhand -11.8067 -30.1153
lfingers 7.12502
lthumb 14.2433 -0.623673
rfemur 5.31972 21.7125 30.0274
rtibia 11.1397
rfoot -19.1898 -33.2299
rtoes 0.293516
lfemur -8.31512 -21.5518 -23.6019
ltibia 25.9695
lfoot -21.3453 13.4448
ltoes -26.5679
386
root 8.27086 15.593 8.05306 -1.02023 -79.0524 1.70697
lowerback 8.51009 1.19139 2.13818
upperback -4.74358 1.8182 -0.334145
thorax -9.76958 0.71406 -1.86213
lowerneck -6.94488 -6.84833 -9.97723
upperneck 5.95016 -8.71774 6.88585
head 3.6419 -4.27117 3.19898
rclavicle -2.25993e-014 2.5842e-015
rhumerus -49.2607 4.20872 -78.5342
rradius 31.3909
rwrist 36.5083
rhand 3.1934 -56.3654
rfingers 7.12502
rthumb 28.6453 -84.1896
lclavicle -2.25993e-014 2.5842e-015
lhumerus -55.024 20.7704 63.3364
lradius 41.2906
lwrist 10.993
lhand -11.566 -30.2392
lfingers 7.12502
lthumb 14.4752 -0.764116
rfemur 5.68679 22.4309 30.535
rtibia 10.5887
rfoot -18.3867 -34.3565
rtoes -1.0534
lfemur -8.29677 -22.0272 -23.3413
ltibia 26.0706
lfoot -22.2779 13.2631
ltoes -23.6654
387
root 8.27007 15.585 8.04982 0.375039 -78.9049 0.309625
lowerback 8.54719 1.14161 2.23002
upperback -4.82235 1.76877 -0.279261
thorax -9.88027 0.683019 -1.84935
lowerneck -6.95497 -6.87911 -9.89041
upperneck 5.97921 -8.77222 6.92464
head 3.65491 -4.29471 3.19257
rclavicle 1.7549e-014 3.67752e-015
rhumerus -49.987 5.56896 -80.0541
rradius 32.5095
rwrist 34.3236
rhand 2.78217 -56.7768
rfingers 7.12502
rthumb 28.2524 -84.6667
lclavicle 1.7549e-014 3.67752e-015
lhumerus -55.0114 20.8939 64.2079
lradius 41.0991
lwrist 10.2407
lhand -11.2415 -30.8603
lfingers 7.12502
lthumb 14.7878 -1.40789
rfemur 5.96088 22.0165 30.833
rtibia 9.86735
rfoot -17.2886 -34.4024
rtoes -2.85525
lfemur -8.31577 -22.6999 -23.0695
ltibia 26.1941
lfoot -22.6934 13.4508
ltoes -22.718
388
root 8.27367 15.5852 8.05295 1.98441 -78.8695 -1.31443
lowerback 8.60261 1.129 2.58108
upperback -4.85599 1.7978 -0.289729
thorax -9.93967 0.671434 -2.06491
lowerneck -6.90297 -6.89804 -9.83088
upperneck 5.85896 -8.81991 7.1102
head 3.62 -4.31032 3.23975
rclavicle -1.94685e-014 -2.68359e-015
rhumerus -50.5626 6.68822 -81.528
rradius 33.6071
rwrist 32.3121
rhand 2.28837 -57.2468
rfingers 7.12502
rthumb 27.7803 -85.2138
lclavicle -1.94685e-014 -2.68359e-015
lhumerus -54.6829 20.4076 65.4802
lradius 41.0529
lwrist 9.788
lhand -10.3108 -30.9964
lfingers 7.12502
lthumb 15.6844 -1.61207
rfemur 6.4149 21.7273 31.0968
rtibia 8.91488
rfoot -17.214 -33.8769
rtoes -1.60964
lfemur -8.37054 -23.2103 -22.8153
ltibia 26.386
lfoot -22.7194 14.1454
ltoes -23.947
